<?xml version="1.0" standalone="no"?>
<!DOCTYPE svg PUBLIC "-//W3C//DTD SVG 20010904//EN"
 "http://www.w3.org/TR/2001/REC-SVG-20010904/DTD/svg10.dtd">
<svg version="1.0" xmlns="http://www.w3.org/2000/svg"
 width="1590.000000pt" height="696.000000pt" viewBox="0 0 1590.000000 696.000000"
 preserveAspectRatio="xMidYMid meet">

<g transform="translate(0.000000,696.000000) scale(0.100000,-0.100000)"
fill="#000000" stroke="none">
<path d="M3367 6253 c-2 -5 -21 -62 -42 -128 -36 -113 -44 -139 -74 -225 -7
-19 -17 -50 -21 -69 -5 -18 -13 -38 -19 -44 -6 -6 -11 -20 -11 -31 -1 -12 -9
-39 -20 -61 -11 -22 -19 -48 -20 -58 0 -9 -4 -25 -9 -35 -6 -9 -22 -57 -36
-107 -15 -49 -30 -97 -34 -105 -5 -9 -12 -31 -16 -50 -4 -19 -14 -44 -21 -55
-8 -11 -14 -29 -14 -40 0 -12 -7 -30 -15 -41 -8 -10 -15 -31 -15 -45 0 -14 -7
-34 -15 -45 -8 -10 -15 -31 -15 -45 0 -14 -7 -34 -15 -45 -8 -10 -15 -26 -15
-35 0 -16 -42 -153 -59 -194 -15 -37 -33 -90 -43 -130 -6 -22 -15 -45 -20 -52
-6 -7 -14 -27 -18 -45 -5 -18 -14 -49 -21 -68 -32 -91 -38 -110 -59 -180 -12
-41 -26 -85 -31 -97 l-9 -23 -507 0 c-280 1 -609 5 -733 10 -417 17 -996 24
-1004 12 -4 -7 23 -31 66 -61 40 -27 87 -61 103 -74 17 -14 109 -84 205 -156
96 -72 180 -134 185 -138 6 -5 28 -21 50 -38 22 -16 45 -34 51 -40 7 -5 24
-19 40 -30 34 -24 283 -211 351 -263 12 -9 31 -24 43 -32 34 -23 115 -84 131
-98 7 -6 95 -73 194 -147 375 -280 355 -263 355 -299 0 -18 -7 -41 -15 -52 -8
-10 -15 -27 -15 -36 0 -10 -21 -77 -46 -150 -25 -73 -49 -148 -54 -167 -5 -18
-13 -38 -19 -44 -6 -6 -11 -18 -11 -26 0 -15 -33 -108 -51 -143 -5 -10 -13
-34 -18 -55 -11 -46 -68 -215 -87 -261 -8 -18 -14 -40 -14 -50 0 -9 -7 -26
-15 -36 -8 -11 -15 -29 -15 -41 0 -12 -7 -30 -15 -41 -8 -10 -15 -27 -15 -37
0 -11 -6 -31 -14 -45 -7 -15 -30 -81 -51 -147 -38 -121 -67 -203 -91 -262 -8
-17 -14 -37 -14 -45 0 -8 -7 -23 -15 -34 -8 -10 -15 -29 -15 -41 0 -12 -6 -34
-14 -50 -16 -31 -96 -277 -96 -293 0 -27 56 4 175 98 6 4 51 34 100 67 50 33
95 64 101 70 6 5 22 17 34 25 12 8 32 22 44 31 62 46 127 89 136 89 5 0 10 4
10 9 0 4 21 22 48 39 26 16 73 48 104 71 132 94 158 111 168 111 5 0 10 4 10
9 0 5 44 39 98 75 53 36 129 88 167 115 39 28 115 81 170 119 55 37 123 84
150 103 28 20 82 57 120 84 39 26 92 64 118 83 47 34 48 34 69 16 42 -37 54
-46 153 -116 55 -39 101 -75 103 -79 2 -5 20 -18 40 -31 20 -12 103 -72 184
-133 406 -304 482 -361 506 -376 15 -9 38 -27 52 -41 14 -14 39 -34 55 -44 41
-26 469 -345 476 -356 11 -16 73 -58 87 -58 22 0 12 13 -88 117 -52 54 -138
146 -190 203 -96 106 -149 163 -341 371 -58 63 -127 139 -154 169 -26 30 -101
111 -165 180 -65 69 -137 147 -161 174 -78 88 -153 170 -179 197 -14 15 -43
46 -65 70 -201 220 -272 296 -286 307 -15 10 -22 8 -47 -13 -17 -14 -33 -25
-37 -25 -4 0 -24 -13 -44 -29 -20 -15 -60 -44 -88 -65 -29 -20 -75 -52 -103
-71 -27 -19 -54 -35 -60 -35 -5 0 -10 -4 -10 -9 0 -5 -39 -35 -87 -67 -48 -33
-126 -86 -173 -120 -249 -178 -321 -225 -331 -218 -10 6 -2 46 17 83 8 14 14
31 14 38 0 7 6 27 14 45 8 18 26 69 40 113 39 123 48 148 62 177 8 14 14 35
14 45 0 11 7 28 15 39 8 10 15 26 15 34 0 8 10 39 21 70 12 30 25 64 29 75 10
25 38 110 50 150 5 17 21 62 35 100 33 86 38 107 28 121 -8 11 -85 70 -187
143 -33 25 -118 88 -188 140 -70 53 -165 124 -210 158 -46 34 -92 69 -103 77
-11 9 -66 51 -122 93 -69 51 -103 83 -103 96 0 17 5 19 38 13 20 -3 283 -9
584 -12 l548 -7 15 37 c9 21 27 74 41 119 14 45 32 96 40 114 8 17 14 39 14
50 0 10 6 27 14 38 7 11 16 31 19 45 7 31 33 105 52 147 8 17 15 38 15 46 0 8
7 28 15 43 8 16 15 36 15 44 0 8 21 74 46 145 25 72 48 141 51 155 3 14 12 34
19 45 8 11 14 30 14 43 0 12 7 25 15 29 21 7 43 -22 50 -67 3 -19 10 -43 15
-52 6 -10 14 -34 19 -55 5 -21 14 -51 19 -68 6 -16 20 -64 32 -105 11 -41 27
-95 35 -120 9 -25 15 -54 15 -65 1 -11 7 -29 15 -39 8 -11 15 -31 15 -44 0
-13 6 -33 12 -45 7 -12 18 -40 24 -62 7 -22 19 -62 27 -90 8 -27 29 -99 47
-160 32 -113 58 -152 89 -139 9 3 279 10 601 15 343 5 597 13 614 19 17 6 134
10 267 10 130 1 283 6 340 12 128 13 158 14 859 22 311 3 781 13 1045 21 264
8 710 20 990 25 281 6 638 15 795 20 157 5 404 9 550 10 146 0 321 5 390 11
69 5 382 14 695 19 314 5 629 14 700 19 72 6 267 11 435 11 168 1 379 5 470
10 91 5 383 14 649 19 266 6 486 13 489 16 3 3 2 8 -1 12 -4 3 -285 10 -624
14 -340 5 -724 13 -853 18 -129 6 -385 10 -569 11 -183 0 -487 6 -675 14 -187
8 -539 17 -781 20 -242 3 -550 11 -685 16 -230 10 -485 16 -1780 40 -289 5
-673 15 -855 21 -181 6 -715 16 -1185 20 -470 5 -907 13 -970 18 -63 6 -236
13 -383 17 l-269 7 -13 31 c-7 17 -23 65 -35 106 -12 41 -29 90 -36 108 -8 18
-14 43 -14 55 0 12 -7 31 -15 41 -8 11 -15 32 -15 46 0 14 -7 35 -15 46 -8 10
-15 29 -15 42 0 13 -5 32 -10 43 -6 11 -24 68 -41 127 -16 59 -34 115 -39 124
-6 10 -10 28 -10 41 0 12 -6 32 -14 43 -8 11 -18 37 -22 59 -4 21 -13 50 -20
64 -8 14 -14 35 -14 46 0 12 -4 25 -9 30 -6 6 -14 28 -20 50 -5 22 -17 63 -26
90 -9 28 -23 75 -32 105 -8 30 -22 70 -29 88 -8 18 -14 43 -14 55 0 13 -7 32
-15 43 -8 10 -15 30 -15 44 0 14 -6 34 -14 45 -7 11 -16 37 -20 59 -4 21 -11
46 -16 55 -5 9 -19 50 -31 91 -12 41 -29 100 -39 130 -9 30 -26 83 -36 117
-18 59 -27 73 -37 56z"/>
<path d="M4457 5983 c-2 -5 -12 -37 -21 -73 -10 -36 -22 -74 -26 -85 -5 -11
-13 -33 -18 -50 l-9 -30 -128 -5 c-118 -5 -126 -6 -102 -19 15 -8 27 -18 27
-23 0 -4 4 -8 9 -8 15 0 101 -60 101 -71 0 -5 6 -9 14 -9 7 0 19 -7 26 -15 7
-8 8 -15 3 -15 -6 0 -13 -18 -17 -40 -3 -23 -10 -49 -15 -58 -8 -15 -14 -35
-36 -109 -8 -29 3 -29 37 0 15 12 43 33 63 47 20 14 45 33 57 43 31 25 65 21
112 -15 22 -18 43 -36 44 -40 2 -5 9 -8 15 -8 6 0 23 -12 38 -26 29 -28 55
-25 39 4 -14 26 -40 110 -40 132 0 10 -4 20 -8 22 -5 2 -12 18 -15 36 -5 26
-3 34 11 39 17 6 63 40 93 68 9 8 19 15 23 15 5 0 21 11 38 25 l30 25 -124 0
-123 0 -11 28 c-6 15 -19 54 -28 87 -10 33 -22 68 -27 77 -5 10 -9 24 -9 32 0
17 -17 30 -23 19z"/>
<path d="M1826 5380 c-3 -23 -10 -49 -15 -58 -15 -27 -25 -56 -25 -72 -1 -12
-20 -16 -98 -18 -54 -1 -98 -7 -98 -12 0 -6 4 -10 9 -10 7 0 35 -19 114 -80
26 -21 38 -60 17 -60 -5 0 -10 -10 -10 -23 0 -13 -4 -27 -9 -33 -15 -15 -24
-74 -12 -74 6 0 39 23 73 50 34 28 65 50 69 50 4 0 21 -11 37 -25 17 -14 33
-25 36 -25 4 0 19 -11 34 -25 15 -14 30 -25 34 -25 12 0 19 18 8 25 -5 3 -10
17 -10 31 0 13 -4 24 -9 24 -5 0 -12 21 -16 46 -5 36 -3 50 11 65 9 10 22 19
29 19 7 0 20 10 31 21 10 12 29 25 42 30 48 18 21 29 -73 29 -87 0 -95 2 -95
19 0 11 -4 22 -9 26 -6 3 -13 26 -17 50 -3 25 -10 45 -15 45 -5 0 -9 11 -9 25
0 40 -17 29 -24 -15z"/>
<path d="M4594 4815 c-3 -25 -10 -45 -15 -45 -5 0 -9 -9 -9 -20 0 -18 -7 -20
-57 -20 l-56 0 23 -25 c13 -13 31 -27 42 -31 18 -5 25 -43 11 -58 -11 -11 -31
-76 -23 -76 4 0 26 14 48 30 45 32 76 38 89 17 11 -18 62 -51 69 -44 3 3 1 13
-4 24 -41 78 -40 91 5 120 59 38 59 43 -2 43 -51 0 -56 2 -67 28 -6 15 -10 32
-9 39 1 6 -3 14 -9 18 -5 3 -10 15 -10 26 0 37 -19 18 -26 -26z"/>
<path d="M11655 3430 c-265 -42 -452 -194 -536 -437 -27 -79 -49 -229 -49
-338 0 -262 65 -468 183 -584 61 -60 79 -73 145 -106 135 -68 408 -90 580 -46
313 79 483 321 499 711 19 430 -138 700 -452 780 -90 23 -283 33 -370 20z
m295 -276 c153 -69 218 -234 207 -529 -7 -194 -41 -296 -127 -382 -56 -56
-114 -83 -202 -94 -172 -21 -313 41 -376 166 -41 83 -54 147 -59 300 -8 238
27 376 123 471 77 78 161 106 292 99 61 -3 98 -11 142 -31z"/>
<path d="M13250 3429 c-316 -49 -517 -255 -570 -585 -6 -36 -11 -130 -10 -208
0 -325 94 -539 286 -651 116 -68 314 -102 495 -85 371 35 580 262 620 674 19
199 -11 397 -83 546 -75 155 -205 254 -386 294 -92 21 -267 28 -352 15z m262
-259 c94 -27 179 -120 213 -233 22 -74 38 -252 30 -342 -13 -163 -47 -260
-117 -340 -76 -87 -208 -126 -346 -105 -163 27 -246 112 -288 295 -23 103 -24
319 -1 422 38 172 137 283 281 313 48 11 175 5 228 -10z"/>
<path d="M5821 3411 c-18 -5 -39 -15 -46 -22 -17 -18 -495 -1393 -495 -1424 0
-12 6 -27 13 -33 34 -28 232 -25 261 4 8 7 37 83 66 169 l52 155 278 0 278 0
53 -157 c30 -86 60 -162 66 -169 29 -29 255 -31 289 -3 11 9 14 23 11 45 -4
25 -401 1178 -469 1362 -11 29 -29 57 -41 64 -27 14 -268 21 -316 9z m236
-611 l100 -305 -205 -3 c-113 -1 -206 -1 -208 1 -2 1 43 143 99 315 55 171
104 309 108 304 4 -4 52 -144 106 -312z"/>
<path d="M4356 3385 l-26 -24 0 -711 0 -710 28 -12 c37 -16 221 -16 250 0 l22
13 0 289 0 290 240 0 c279 0 260 -9 260 120 0 129 19 120 -260 120 l-240 0 0
200 0 200 250 0 250 0 16 25 c12 18 16 47 16 104 0 133 38 121 -401 121 l-378
0 -27 -25z"/>
<path d="M6900 3398 c-14 -7 -33 -29 -42 -48 -17 -32 -18 -88 -18 -717 0 -582
2 -684 14 -696 29 -29 213 -33 257 -7 12 8 15 104 19 620 l5 612 205 -599
c133 -387 212 -606 226 -620 35 -35 206 -44 264 -13 22 12 26 23 266 698 l189
532 3 -604 c3 -714 -14 -641 146 -641 62 1 110 6 124 13 l22 13 -2 705 -3 706
-34 30 -33 30 -168 -4 c-152 -3 -171 -5 -196 -24 -55 -41 -39 -1 -423 -1018
-5 -13 -61 128 -181 459 -95 262 -183 491 -194 508 -43 63 -73 72 -256 75
-120 2 -172 -1 -190 -10z"/>
<path d="M8933 3386 l-28 -24 0 -697 0 -697 28 -24 28 -24 398 0 c334 0 400 2
410 14 16 19 26 114 17 160 -13 67 -8 66 -307 66 l-269 0 0 210 0 210 235 0
235 0 10 26 c16 41 12 156 -6 182 -15 22 -19 22 -245 22 l-229 0 0 180 0 180
269 0 c268 0 270 0 285 22 18 26 22 151 6 192 l-10 26 -399 0 -400 0 -28 -24z"/>
<path d="M10085 3385 l-25 -24 0 -710 c0 -815 -13 -726 107 -737 74 -7 172 8
185 29 4 7 8 139 8 295 l0 282 238 0 239 0 11 25 c15 31 16 154 2 189 l-10 26
-240 0 -240 0 0 200 0 200 249 0 c219 0 250 2 262 17 19 22 25 165 9 203 l-12
30 -380 0 -379 0 -24 -25z"/>
<path d="M14200 3390 c-27 -51 -23 -185 6 -215 13 -12 49 -15 205 -15 l189 0
0 -605 0 -605 23 -14 c54 -34 232 -31 268 5 18 18 19 44 19 619 l0 600 189 0
c185 0 190 1 205 22 18 26 22 160 6 202 l-10 26 -544 0 c-531 0 -546 -1 -556
-20z"/>
<path d="M6560 1418 c-57 -29 -83 -75 -77 -137 6 -59 32 -90 106 -127 79 -40
101 -61 101 -95 0 -57 -77 -76 -159 -39 -23 11 -47 17 -52 14 -15 -9 -10 -61
6 -78 39 -39 169 -45 233 -12 49 25 76 72 77 132 0 71 -22 99 -119 150 -88 46
-104 64 -87 100 13 30 54 40 105 25 70 -20 71 -20 71 24 0 37 -3 41 -35 52
-56 19 -121 15 -170 -9z"/>
<path d="M9498 1431 c-53 -17 -98 -53 -125 -99 -22 -37 -28 -61 -31 -131 -9
-178 50 -263 191 -278 118 -12 218 41 254 135 22 56 24 188 4 245 -16 47 -54
93 -93 113 -36 18 -161 27 -200 15z m147 -93 c39 -30 55 -77 55 -158 0 -118
-35 -170 -117 -177 -96 -8 -138 45 -138 172 0 91 18 140 63 167 39 25 103 23
137 -4z"/>
<path d="M13814 1427 c-102 -34 -155 -108 -162 -226 -5 -93 9 -150 50 -197 54
-61 100 -79 203 -78 61 0 102 5 128 17 l38 16 -3 123 -3 123 -100 0 -100 0 0
-35 0 -35 53 -3 52 -3 0 -58 c0 -65 -6 -71 -66 -71 -48 0 -105 32 -128 70 -10
18 -20 59 -23 94 -4 50 0 69 19 105 51 98 135 115 281 56 16 -7 18 -3 15 36
-2 37 -8 46 -31 57 -41 20 -173 25 -223 9z"/>
<path d="M6825 1410 c-3 -11 -3 -29 0 -40 5 -17 15 -20 70 -20 l65 0 2 -207 3
-208 45 0 45 0 3 208 2 207 70 0 70 0 0 40 0 40 -184 0 c-176 0 -185 -1 -191
-20z"/>
<path d="M7266 1414 c-9 -24 -7 -457 2 -472 7 -9 43 -12 148 -10 l139 3 0 35
0 35 -97 3 -98 3 0 69 0 69 83 3 82 3 0 35 0 35 -82 3 -83 3 0 59 0 60 95 0
95 0 0 40 0 40 -139 0 c-117 0 -140 -2 -145 -16z"/>
<path d="M7655 1418 c-3 -7 -4 -119 -3 -248 l3 -235 45 0 45 0 3 86 3 86 64 5
c81 7 131 36 156 92 36 79 15 162 -52 201 -44 26 -255 36 -264 13z m212 -94
c7 -10 13 -35 13 -55 0 -48 -36 -79 -91 -79 l-39 0 0 81 0 82 52 -5 c34 -4 56
-12 65 -24z"/>
<path d="M8245 1418 c-3 -7 -4 -119 -3 -248 l3 -235 45 0 45 0 0 245 0 245
-43 3 c-28 2 -44 -1 -47 -10z"/>
<path d="M8461 1416 c-8 -9 -11 -83 -9 -247 l3 -234 40 0 40 0 3 193 2 193 91
-178 c51 -98 99 -186 107 -196 12 -14 28 -17 66 -15 l51 3 5 231 c3 127 3 239
2 248 -3 13 -13 16 -45 14 l-42 -3 0 -173 c0 -94 -1 -172 -2 -172 -1 0 -37 68
-80 151 -97 188 -107 199 -171 199 -30 0 -54 -5 -61 -14z"/>
<path d="M8924 1416 c-3 -8 -4 -25 -2 -38 3 -21 9 -23 70 -26 l68 -3 2 -207 3
-207 45 0 45 0 3 208 2 207 70 0 70 0 0 40 0 40 -185 0 c-152 0 -187 -3 -191
-14z"/>
<path d="M10024 1416 c-3 -8 -4 -25 -2 -38 3 -21 9 -23 70 -26 l68 -3 2 -207
3 -207 45 0 45 0 3 208 2 207 70 0 70 0 0 40 0 40 -185 0 c-152 0 -187 -3
-191 -14z"/>
<path d="M10465 1418 c-3 -7 -4 -119 -3 -248 l3 -235 45 0 45 0 3 108 3 107
94 0 94 0 3 -107 3 -108 45 0 45 0 0 245 0 245 -45 0 -45 0 -3 -92 -3 -93 -94
0 -94 0 -3 93 -3 92 -43 3 c-28 2 -44 -1 -47 -10z"/>
<path d="M10965 1418 c-3 -8 -4 -119 -3 -248 l3 -235 140 0 140 0 0 35 0 35
-97 3 -98 3 0 69 0 70 85 0 85 0 0 40 0 40 -85 0 -85 0 0 60 0 59 98 3 97 3 0
35 0 35 -138 3 c-105 2 -139 0 -142 -10z"/>
<path d="M11525 1418 c-3 -7 -4 -119 -3 -248 l3 -235 130 0 130 0 3 38 3 37
-85 0 -86 0 -2 208 -3 207 -43 3 c-28 2 -44 -1 -47 -10z"/>
<path d="M11855 1418 c-3 -7 -4 -119 -3 -248 l3 -235 45 0 45 0 0 245 0 245
-43 3 c-28 2 -44 -1 -47 -10z"/>
<path d="M12071 1416 c-8 -9 -11 -83 -9 -247 l3 -234 43 -3 42 -3 2 178 c1 98
1 190 2 206 0 15 3 24 6 20 4 -5 35 -91 70 -193 35 -102 68 -191 73 -198 6 -8
26 -12 51 -10 l41 3 67 185 c36 102 71 192 77 200 7 11 10 -46 10 -188 l1
-203 43 3 42 3 3 234 c2 164 -1 238 -9 247 -18 21 -122 19 -141 -3 -9 -10 -42
-89 -74 -175 -32 -87 -61 -154 -65 -150 -4 4 -31 74 -60 157 -30 82 -62 158
-71 167 -23 23 -129 25 -147 4z"/>
<path d="M12754 1417 c-2 -7 -3 -118 -2 -247 l3 -235 143 -3 142 -3 0 41 0 40
-95 0 -95 0 0 70 0 70 80 0 80 0 0 40 0 40 -80 0 -80 0 0 60 0 60 95 0 95 0 0
40 0 40 -140 0 c-105 0 -142 -3 -146 -13z"/>
<path d="M13135 1418 c-3 -7 -4 -119 -3 -248 l3 -235 133 -3 132 -3 0 41 0 40
-85 0 -85 0 -2 208 -3 207 -43 3 c-28 2 -44 -1 -47 -10z"/>
<path d="M13464 1417 c-2 -7 -3 -118 -2 -247 l3 -235 38 -3 c67 -6 67 -6 67
247 0 163 -3 230 -12 239 -16 16 -87 15 -94 -1z"/>
<path d="M14185 1418 c-3 -7 -4 -119 -3 -248 l3 -235 39 -3 c24 -2 42 2 47 10
5 7 9 57 9 111 l0 97 90 0 89 0 3 -107 3 -108 38 -3 c67 -6 67 -6 67 248 0
254 0 254 -67 248 l-38 -3 -3 -92 -3 -93 -89 0 -90 0 -1 73 c-2 119 1 112 -47
115 -28 2 -44 -1 -47 -10z"/>
<path d="M14624 1416 c-3 -8 -4 -25 -2 -38 3 -21 9 -23 70 -26 l68 -3 2 -207
3 -207 45 0 45 0 3 208 2 207 70 0 70 0 0 40 0 40 -185 0 c-152 0 -187 -3
-191 -14z"/>
</g>
</svg>
