<?xml version="1.0" encoding="utf-8"?>
<svg version="1.0" width="363.000000pt" height="309.000000pt" viewBox="0 0 363.000000 309.000000" preserveAspectRatio="xMidYMid meet" xmlns="http://www.w3.org/2000/svg">
  <defs/>
  <g transform="translate(0.000000,309.000000) scale(0.100000,-0.100000)" fill="#000000" stroke="none">
    <path d="M802 2520 l-162 -168 1 -746 c0 -410 4 -746 7 -746 4 0 252 245 552&#10;545 300 300 549 545 554 545 5 0 139 -129 298 -287 159 -159 291 -290 294&#10;-292 2 -2 4 104 4 236 l0 241 -290 291 c-160 160 -296 291 -303 291 -7 0 -176&#10;-164 -376 -365 -200 -200 -372 -367 -382 -370 -18 -6 -19 11 -19 494 0 276 -3&#10;501 -7 500 -5 -1 -81 -77 -171 -169z" style="fill: rgb(18, 82, 82);"/>
    <path d="M2520 1829 c1 -474 -1 -863 -3 -865 -2 -2 -173 165 -379 372 -282&#10;283 -379 374 -389 368 -8 -5 -258 -255 -557 -555 l-543 -546 161 -66 c88 -37&#10;166 -67 173 -67 7 0 181 169 387 375 206 206 379 375 385 375 5 0 179 -169&#10;386 -376 317 -317 380 -375 397 -369 12 3 90 35 174 70 l153 64 3 858 c1 472&#10;0 869 -3 882 -6 24 -318 341 -336 341 -6 0 -9 -313 -9 -861z" style="fill: rgb(18, 82, 82);"/>
  </g>
</svg>