<?xml version="1.0" standalone="no"?>
<!DOCTYPE svg PUBLIC "-//W3C//DTD SVG 20010904//EN"
 "http://www.w3.org/TR/2001/REC-SVG-20010904/DTD/svg10.dtd">
<svg version="1.0" xmlns="http://www.w3.org/2000/svg"
 width="512.000000pt" height="512.000000pt" viewBox="0 0 512.000000 512.000000"
 preserveAspectRatio="xMidYMid meet">

<g transform="translate(0.000000,512.000000) scale(0.100000,-0.100000)"
fill="#000000" stroke="none">
<path d="M2265 4694 c-164 -19 -285 -53 -405 -114 -303 -153 -518 -451 -571
-790 -7 -45 -9 -133 -6 -220 5 -157 27 -253 86 -384 157 -346 510 -599 874
-625 220 -16 406 18 582 107 210 105 386 283 494 499 75 150 114 392 93 573
-49 428 -350 792 -752 912 -115 34 -296 53 -395 42z"/>
<path d="M3907 2919 c-50 -12 -120 -61 -145 -101 -11 -18 -50 -103 -88 -188
-64 -147 -67 -159 -68 -235 -1 -112 23 -153 186 -310 97 -94 128 -130 128
-149 0 -162 -181 -491 -352 -639 l-57 -49 -138 48 c-178 61 -259 68 -337 30
-65 -32 -74 -41 -181 -200 -112 -166 -125 -193 -125 -282 0 -98 30 -155 139
-265 92 -91 155 -130 248 -150 172 -39 458 105 673 338 91 99 227 284 310 425
40 68 88 148 107 180 18 31 33 59 33 63 0 4 19 46 41 94 136 286 199 536 199
790 0 184 -12 255 -57 348 -59 121 -143 184 -314 233 -108 31 -138 34 -202 19z"/>
<path d="M995 2121 c-86 -25 -141 -56 -202 -114 -124 -117 -153 -206 -153
-463 0 -208 7 -262 49 -370 83 -214 255 -383 537 -526 305 -155 643 -222 1129
-222 269 0 345 5 345 25 0 6 -19 33 -43 59 -95 105 -145 258 -128 390 16 119
34 154 210 412 66 97 130 156 211 196 115 57 242 62 377 15 131 -45 130 -44
163 -16 78 65 210 296 210 368 0 12 -38 57 -97 115 -54 52 -108 107 -120 123
l-21 27 -1204 -1 c-1114 0 -1207 -2 -1263 -18z"/>
</g>
</svg>
