<?xml version="1.0" standalone="no"?>
<!DOCTYPE svg PUBLIC "-//W3C//DTD SVG 20010904//EN"
 "http://www.w3.org/TR/2001/REC-SVG-20010904/DTD/svg10.dtd">
<svg version="1.0" xmlns="http://www.w3.org/2000/svg"
 width="500.000000pt" height="500.000000pt" viewBox="0 0 500.000000 500.000000"
 preserveAspectRatio="xMidYMid meet">

<g transform="translate(0.000000,500.000000) scale(0.100000,-0.100000)"
fill="#000000" stroke="none">
<path d="M824 4991 c-94 -23 -176 -91 -218 -180 l-21 -46 -3 -2245 c-2 -2464
-6 -2300 57 -2387 39 -53 103 -97 172 -117 50 -15 218 -16 1705 -14 l1649 3
67 33 c80 39 139 102 168 178 18 50 20 78 20 340 l0 285 -25 24 c-29 30 -55
32 -86 6 l-24 -19 -5 -294 -5 -295 -28 -36 c-16 -21 -47 -47 -70 -60 l-42 -22
-1600 -3 c-880 -2 -1623 0 -1652 3 -64 8 -110 38 -140 90 l-23 40 0 2225 0
2225 23 39 c27 48 62 75 113 86 21 5 193 10 381 10 342 0 342 0 357 22 24 34
20 73 -10 97 -26 20 -37 21 -378 20 -193 -1 -365 -4 -382 -8z"/>
<path d="M1815 4975 c-29 -28 -32 -64 -7 -94 l17 -21 730 -3 730 -2 5 -375 5
-375 28 -57 c30 -62 83 -115 149 -150 42 -23 49 -23 426 -26 l382 -3 0 -1379
c0 -1367 0 -1380 20 -1400 12 -12 33 -20 54 -20 71 0 66 -114 66 1471 l0 1427
-498 497 c-273 273 -508 506 -521 516 -23 18 -53 19 -793 19 l-769 0 -24 -25z
m2062 -963 c-185 -2 -305 1 -329 8 -44 13 -93 66 -107 117 -11 37 -16 595 -6
605 3 2 169 -160 370 -361 l365 -366 -293 -3z"/>
<path d="M1793 4310 c-51 -23 -216 -179 -249 -236 -65 -111 -28 -357 90 -591
66 -133 224 -364 309 -455 48 -52 127 -29 127 36 0 20 -21 55 -69 115 -103
130 -176 243 -241 376 -71 144 -102 252 -104 358 l-1 78 101 99 c94 93 104
100 141 100 54 0 80 -22 169 -142 109 -147 110 -196 3 -314 l-61 -67 5 -63 c3
-48 14 -80 46 -141 119 -222 436 -520 628 -590 98 -36 136 -29 198 37 67 71
127 96 193 78 36 -10 198 -125 239 -170 29 -32 36 -72 19 -110 -7 -18 -54 -72
-103 -120 l-90 -88 -64 0 c-196 1 -483 134 -749 349 -82 66 -116 75 -150 41
-29 -29 -26 -76 6 -105 15 -14 68 -56 118 -94 298 -224 549 -331 778 -331 113
1 150 19 263 133 116 116 139 158 140 252 0 110 -31 157 -176 265 -136 102
-180 122 -270 122 -81 1 -156 -30 -224 -93 -45 -41 -46 -42 -85 -30 -147 44
-466 355 -553 538 l-29 63 48 52 c69 77 89 126 89 223 0 99 -13 128 -128 280
-67 89 -92 114 -136 137 -67 35 -162 38 -228 8z"/>
<path d="M1237 1912 c-24 -26 -21 -75 4 -98 21 -18 56 -19 1259 -19 1203 0
1238 1 1259 19 26 24 28 77 3 99 -17 16 -119 17 -1264 17 -1193 0 -1246 -1
-1261 -18z"/>
<path d="M1240 1350 c-11 -11 -20 -33 -20 -50 0 -17 9 -39 20 -50 20 -20 33
-20 1260 -20 1227 0 1240 0 1260 20 11 11 20 33 20 50 0 17 -9 39 -20 50 -20
20 -33 20 -1260 20 -1227 0 -1240 0 -1260 -20z"/>
<path d="M1246 789 c-32 -25 -36 -77 -8 -102 17 -16 119 -17 1258 -17 1376 0
1284 -5 1284 65 0 24 -7 39 -26 54 -27 21 -28 21 -1254 21 -1226 0 -1227 0
-1254 -21z"/>
</g>
</svg>
